<svg version="1.2" xmlns="http://www.w3.org/2000/svg" viewBox="0 0 28 27" width="500" height="482">
	<title>logo-app-mini-svg</title>
	<style>
		.s0 { fill: #f21a05 } 
		.s1 { fill: #00113d } 
	</style>
	<path id="Layer" class="s0" d="m23.3 13.7c2.1 0 3.7 1.6 3.7 3.8 0 2.1-1.6 3.9-3.7 3.9-2.1 0-3.8-1.8-3.8-3.9 0-2.2 1.7-3.8 3.8-3.8z"/>
	<path id="Layer" fill-rule="evenodd" class="s1" d="m18.6 11q0 3.4-2.2 5.5-1.9 1.9-4.9 2.1-0.5 0-1 0-1.6 0-3.1-0.4-1.1-0.3-2.2-0.8v3.6 4.4l-0.9 0.9h-2.1v-22.5l2.5-0.1 0.2 1.1q3.2-1.4 5.6-1.4 3.8 0 6 2.1 2.1 2 2.1 5.5zm-2.9 0q0-2.2-1.2-3.5-0.8-0.9-2.4-1.2-0.8-0.1-1.9-0.1-2.5 0-5 1.2v7.3q2.8 1.1 5 1.1 3.1 0 4.3-1.3 1.2-1.3 1.2-3.5z"/>
</svg>